<?xml version="1.0" encoding="UTF-8" standalone="no"?>
<!DOCTYPE svg PUBLIC "-//W3C//DTD SVG 1.1//EN"
 "http://www.w3.org/Graphics/SVG/1.1/DTD/svg11.dtd">
<!-- Generated by graphviz version 2.36.0 (20140111.2315)
 -->
<!-- Title: %3 Pages: 1 -->
<svg width="182pt" height="369pt"
 viewBox="0.00 0.00 182.00 369.00" xmlns="http://www.w3.org/2000/svg" xmlns:xlink="http://www.w3.org/1999/xlink">
<g id="graph0" class="graph" transform="scale(1 1) rotate(0) translate(4 365)">
<title>%3</title>
<polygon fill="white" stroke="none" points="-4,4 -4,-365 178,-365 178,4 -4,4"/>
<text text-anchor="middle" x="87" y="-7.8" font-family="Times,serif" font-size="14.00"> Problem 1</text>
<!-- a -->
<g id="node1" class="node"><title>a</title>
<polygon fill="none" stroke="black" points="0,-170 0,-246 54,-246 54,-170 0,-170"/>
<text text-anchor="middle" x="27" y="-230.8" font-family="Times,serif" font-size="14.00">apple</text>
<polyline fill="none" stroke="black" points="0,-223 54,-223 "/>
<text text-anchor="start" x="8" y="-207.8" font-family="Times,serif" font-size="14.00">a </text>
<text text-anchor="start" x="8" y="-192.8" font-family="Times,serif" font-size="14.00">b </text>
<text text-anchor="start" x="8" y="-177.8" font-family="Times,serif" font-size="14.00">c </text>
</g>
<!-- b -->
<g id="node2" class="node"><title>b</title>
<polygon fill="none" stroke="black" points="39,-56 39,-132 93,-132 93,-56 39,-56"/>
<text text-anchor="middle" x="66" y="-116.8" font-family="Times,serif" font-size="14.00">boy</text>
<polyline fill="none" stroke="black" points="39,-109 93,-109 "/>
<text text-anchor="start" x="47" y="-93.8" font-family="Times,serif" font-size="14.00">a </text>
<text text-anchor="start" x="47" y="-78.8" font-family="Times,serif" font-size="14.00">b </text>
<text text-anchor="start" x="47" y="-63.8" font-family="Times,serif" font-size="14.00">c </text>
</g>
<!-- a&#45;&#45;b -->
<g id="edge2" class="edge"><title>a&#45;&#45;b</title>
<path fill="none" stroke="black" d="M39.9864,-169.706C43.1111,-160.732 46.4879,-151.035 49.7409,-141.693"/>
<polygon fill="black" stroke="black" points="53.0871,-142.726 53.0703,-132.132 46.4764,-140.424 53.0871,-142.726"/>
</g>
<!-- c -->
<g id="node3" class="node"><title>c</title>
<polygon fill="none" stroke="black" points="30.5,-284 30.5,-360 101.5,-360 101.5,-284 30.5,-284"/>
<text text-anchor="middle" x="66" y="-344.8" font-family="Times,serif" font-size="14.00">commons</text>
<polyline fill="none" stroke="black" points="30.5,-337 101.5,-337 "/>
<text text-anchor="start" x="38.5" y="-321.8" font-family="Times,serif" font-size="14.00">a </text>
<text text-anchor="start" x="38.5" y="-306.8" font-family="Times,serif" font-size="14.00">b </text>
<text text-anchor="start" x="38.5" y="-291.8" font-family="Times,serif" font-size="14.00">c </text>
</g>
<!-- d -->
<g id="node4" class="node"><title>d</title>
<polygon fill="none" stroke="black" points="106,-225.849 78.9162,-208 106,-190.151 133.084,-208 106,-225.849"/>
<polygon fill="none" stroke="black" points="106,-230.616 71.6827,-208 106,-185.384 140.317,-208 106,-230.616"/>
<text text-anchor="middle" x="106" y="-204.3" font-family="Times,serif" font-size="14.00">d</text>
</g>
<!-- c&#45;&#45;d -->
<g id="edge3" class="edge"><title>c&#45;&#45;d</title>
<path fill="none" stroke="black" d="M77.4359,-283.033C84.2994,-263.815 92.3487,-241.277 97.797,-226.022"/>
<path fill="none" stroke="white" d="M79.3194,-283.706C86.1829,-264.488 94.2322,-241.95 99.6805,-226.695"/>
<path fill="none" stroke="black" d="M81.2029,-284.378C88.0663,-265.161 96.1157,-242.623 101.564,-227.367"/>
</g>
<!-- d&#45;&#45;b -->
<g id="edge1" class="edge"><title>d&#45;&#45;b</title>
<path fill="none" stroke="black" d="M99.75,-189.5C95.1948,-176.745 88.7952,-158.826 82.7915,-142.016"/>
<polygon fill="black" stroke="black" points="85.9789,-140.535 79.3194,-132.294 79.3868,-142.889 85.9789,-140.535"/>
</g>
<!-- x -->
<g id="node5" class="node"><title>x</title>
<polygon fill="none" stroke="black" points="174,-340 120,-340 120,-304 174,-304 174,-340"/>
<text text-anchor="middle" x="147" y="-318.3" font-family="Times,serif" font-size="14.00">x</text>
</g>
<!-- x&#45;&#45;d -->
<g id="edge4" class="edge"><title>x&#45;&#45;d</title>
<path fill="none" stroke="black" stroke-dasharray="5,2" d="M140.773,-303.99C133.112,-283.061 120.17,-247.709 112.421,-226.54"/>
</g>
</g>
</svg>
