<?xml version="1.0" encoding="UTF-8" standalone="no"?>
<!DOCTYPE svg PUBLIC "-//W3C//DTD SVG 1.1//EN"
 "http://www.w3.org/Graphics/SVG/1.1/DTD/svg11.dtd">
<!-- Generated by graphviz version 2.36.0 (20140111.2315)
 -->
<!-- Title: %3 Pages: 1 -->
<svg width="618pt" height="379pt"
 viewBox="0.00 0.00 618.00 379.00" xmlns="http://www.w3.org/2000/svg" xmlns:xlink="http://www.w3.org/1999/xlink">
<g id="graph0" class="graph" transform="scale(1 1) rotate(0) translate(4 375)">
<title>%3</title>
<polygon fill="white" stroke="none" points="-4,4 -4,-375 614,-375 614,4 -4,4"/>
<text text-anchor="middle" x="305" y="-7.8" font-family="Times,serif" font-size="14.00"> Problem 1</text>
<!-- employee -->
<g id="node1" class="node"><title>employee</title>
<polygon fill="none" stroke="black" points="16,-225.5 16,-284.5 86,-284.5 86,-225.5 16,-225.5"/>
<text text-anchor="start" x="24" y="-269.3" font-family="Times,serif" font-size="14.00">employee</text>
<polyline fill="none" stroke="black" points="16,-261.5 86,-261.5 "/>
<text text-anchor="start" x="43.5" y="-247.3" font-family="Times,serif" text-decoration="underline" font-size="14.00">ID</text>
<text text-anchor="start" x="35.5" y="-233.3" font-family="Times,serif" font-size="14.00">name</text>
</g>
<!-- assign -->
<g id="node6" class="node"><title>assign</title>
<polygon fill="none" stroke="black" points="45,-175 -0.437272,-157 45,-139 90.4373,-157 45,-175"/>
<text text-anchor="middle" x="45" y="-153.3" font-family="Times,serif" font-size="14.00">assign</text>
</g>
<!-- employee&#45;&#45;assign -->
<g id="edge2" class="edge"><title>employee&#45;&#45;assign</title>
<path fill="none" stroke="black" d="M49.216,-225.457C48.1797,-208.876 46.9104,-188.566 46.0369,-174.59"/>
</g>
<!-- sales_office -->
<g id="node2" class="node"><title>sales_office</title>
<polygon fill="none" stroke="black" points="190.5,-56 190.5,-102 271.5,-102 271.5,-56 190.5,-56"/>
<text text-anchor="start" x="198.5" y="-86.8" font-family="Times,serif" font-size="14.00">sales_office</text>
<polyline fill="none" stroke="black" points="190.5,-79 271.5,-79 "/>
<text text-anchor="start" x="199" y="-64.8" font-family="Times,serif" text-decoration="underline" font-size="14.00">office_num</text>
</g>
<!-- property -->
<g id="node3" class="node"><title>property</title>
<polygon fill="none" stroke="black" points="312,-232 312,-278 374,-278 374,-232 312,-232"/>
<text text-anchor="start" x="320" y="-262.8" font-family="Times,serif" font-size="14.00">property</text>
<polyline fill="none" stroke="black" points="312,-255 374,-255 "/>
<text text-anchor="start" x="335.5" y="-240.8" font-family="Times,serif" text-decoration="underline" font-size="14.00">ID</text>
</g>
<!-- list -->
<g id="node8" class="node"><title>list</title>
<polygon fill="none" stroke="black" points="343,-175 313,-157 343,-139 373,-157 343,-175"/>
<text text-anchor="middle" x="343" y="-153.3" font-family="Times,serif" font-size="14.00">list</text>
</g>
<!-- property&#45;&#45;list -->
<g id="edge1" class="edge"><title>property&#45;&#45;list</title>
<path fill="none" stroke="black" d="M343,-231.734C343,-214.453 343,-190.853 343,-175.052"/>
</g>
<!-- own -->
<g id="node9" class="node"><title>own</title>
<polygon fill="none" stroke="black" points="257,-175 220.847,-157 257,-139 293.153,-157 257,-175"/>
<text text-anchor="middle" x="257" y="-153.3" font-family="Times,serif" font-size="14.00">own</text>
</g>
<!-- property&#45;&#45;own -->
<g id="edge12" class="edge"><title>property&#45;&#45;own</title>
<path fill="none" stroke="black" d="M321.564,-233.069C304.296,-213.793 279.987,-186.657 266.185,-171.251"/>
<path fill="none" stroke="white" d="M323.054,-231.734C305.786,-212.459 281.476,-185.323 267.675,-169.916"/>
<path fill="none" stroke="black" d="M324.543,-230.4C307.276,-211.124 282.966,-183.988 269.164,-168.582"/>
</g>
<!-- location -->
<g id="node4" class="node"><title>location</title>
<polygon fill="none" stroke="black" points="402.5,-211.5 402.5,-298.5 467.5,-298.5 467.5,-211.5 402.5,-211.5"/>
<text text-anchor="start" x="413" y="-283.3" font-family="Times,serif" font-size="14.00">location</text>
<polyline fill="none" stroke="black" points="402.5,-275.5 467.5,-275.5 "/>
<text text-anchor="start" x="414.5" y="-261.3" font-family="Times,serif" text-decoration="underline" font-size="14.00">address</text>
<text text-anchor="start" x="424.5" y="-247.3" font-family="Times,serif" text-decoration="underline" font-size="14.00">city</text>
<text text-anchor="start" x="422.5" y="-233.3" font-family="Times,serif" text-decoration="underline" font-size="14.00">state</text>
<text text-anchor="start" x="410.5" y="-219.3" font-family="Times,serif" font-size="14.00">zip_code</text>
</g>
<!-- owner -->
<g id="node5" class="node"><title>owner</title>
<polygon fill="none" stroke="black" points="147,-225.5 147,-284.5 201,-284.5 201,-225.5 147,-225.5"/>
<text text-anchor="start" x="157" y="-269.3" font-family="Times,serif" font-size="14.00">owner</text>
<polyline fill="none" stroke="black" points="147,-261.5 201,-261.5 "/>
<text text-anchor="start" x="166.5" y="-247.3" font-family="Times,serif" text-decoration="underline" font-size="14.00">ID</text>
<text text-anchor="start" x="158.5" y="-233.3" font-family="Times,serif" font-size="14.00">name</text>
</g>
<!-- owner&#45;&#45;own -->
<g id="edge11" class="edge"><title>owner&#45;&#45;own</title>
<path fill="none" stroke="black" d="M196.369,-223.935C200.392,-219.158 204.535,-214.278 208.485,-209.694 220.709,-195.508 234.991,-179.479 244.585,-168.787"/>
<path fill="none" stroke="white" d="M197.899,-225.223C201.916,-220.453 206.06,-215.573 210,-211 222.203,-196.839 236.484,-180.81 246.074,-170.123"/>
<path fill="none" stroke="black" d="M199.429,-226.511C203.441,-221.747 207.584,-216.867 211.515,-212.306 223.696,-198.169 237.977,-182.14 247.562,-171.459"/>
</g>
<!-- assign&#45;&#45;sales_office -->
<g id="edge7" class="edge"><title>assign&#45;&#45;sales_office</title>
<path fill="none" stroke="black" d="M65.5801,-145.43C93.26,-134.12 142.43,-114.029 179.855,-98.7374"/>
<path fill="none" stroke="white" d="M66.3366,-147.282C94.0165,-135.972 143.187,-115.881 180.612,-100.589"/>
<path fill="none" stroke="black" d="M67.0931,-149.133C94.773,-137.823 143.943,-117.732 181.368,-102.44"/>
<polygon fill="black" stroke="black" points="182.406,-103.636 190.34,-96.6139 179.759,-97.1565 182.406,-103.636"/>
</g>
<!-- manage -->
<g id="node7" class="node"><title>manage</title>
<polygon fill="none" stroke="black" points="100,-371 45.6541,-353 100,-335 154.346,-353 100,-371"/>
<text text-anchor="middle" x="100" y="-349.3" font-family="Times,serif" font-size="14.00">manage</text>
</g>
<!-- manage&#45;&#45;employee -->
<g id="edge3" class="edge"><title>manage&#45;&#45;employee</title>
<path fill="none" stroke="black" d="M92.558,-337.42C86.6604,-325.865 78.1451,-309.182 70.356,-293.922"/>
<polygon fill="black" stroke="black" points="73.2937,-291.979 65.6301,-284.663 67.0589,-295.161 73.2937,-291.979"/>
</g>
<!-- manage&#45;&#45;sales_office -->
<g id="edge10" class="edge"><title>manage&#45;&#45;sales_office</title>
<path fill="none" stroke="black" d="M100.489,-335.378C104.987,-308.372 115.94,-253.268 136.191,-210.148 154.098,-172.236 182.667,-134.056 203.53,-108.612"/>
<path fill="none" stroke="white" d="M102.462,-335.707C106.949,-308.762 117.902,-253.658 138,-211 155.699,-173.434 184.268,-135.254 205.076,-109.88"/>
<path fill="none" stroke="black" d="M104.434,-336.035C108.91,-309.152 119.863,-254.048 139.809,-211.852 157.301,-174.632 185.869,-136.452 206.623,-111.149"/>
<polygon fill="black" stroke="black" points="207.835,-112.037 211.536,-102.109 202.452,-107.562 207.835,-112.037"/>
</g>
<!-- list&#45;&#45;sales_office -->
<g id="edge4" class="edge"><title>list&#45;&#45;sales_office</title>
<path fill="none" stroke="black" d="M329.267,-146.681C315.058,-137.039 292.17,-121.508 272.056,-107.86"/>
<polygon fill="black" stroke="black" points="273.88,-104.867 263.64,-102.148 269.949,-110.66 273.88,-104.867"/>
</g>
<!-- office_location -->
<g id="node10" class="node"><title>office_location</title>
<polygon fill="none" stroke="black" points="519,-371 428.884,-353 519,-335 609.116,-353 519,-371"/>
<text text-anchor="middle" x="519" y="-349.3" font-family="Times,serif" font-size="14.00">office_location</text>
</g>
<!-- office_location&#45;&#45;sales_office -->
<g id="edge8" class="edge"><title>office_location&#45;&#45;sales_office</title>
<path fill="none" stroke="black" d="M515.217,-335.169C511.572,-307.182 501.169,-250.47 474.357,-212.14 429.101,-146.319 338.09,-110.709 281.097,-94.1405"/>
<path fill="none" stroke="white" d="M517.2,-334.911C513.539,-306.821 503.136,-250.109 476,-211 429.829,-144.457 338.818,-108.847 281.656,-92.22"/>
<path fill="none" stroke="black" d="M519.183,-334.652C515.506,-306.46 505.103,-249.749 477.643,-209.86 430.558,-142.594 339.547,-106.984 282.214,-90.2996"/>
<polygon fill="black" stroke="black" points="282.317,-88.7702 271.743,-89.4279 280.419,-95.508 282.317,-88.7702"/>
</g>
<!-- office_location&#45;&#45;location -->
<g id="edge5" class="edge"><title>office_location&#45;&#45;location</title>
<path fill="none" stroke="black" d="M506.242,-337.42C497.648,-327.598 485.811,-314.07 474.253,-300.861"/>
<polygon fill="black" stroke="black" points="476.726,-298.371 467.507,-293.15 471.458,-302.981 476.726,-298.371"/>
</g>
<!-- property_location -->
<g id="node11" class="node"><title>property_location</title>
<polygon fill="none" stroke="black" points="307,-371 203.702,-353 307,-335 410.298,-353 307,-371"/>
<text text-anchor="middle" x="307" y="-349.3" font-family="Times,serif" font-size="14.00">property_location</text>
</g>
<!-- property_location&#45;&#45;property -->
<g id="edge9" class="edge"><title>property_location&#45;&#45;property</title>
<path fill="none" stroke="black" d="M311.234,-335.013C316.152,-321.9 323.212,-303.071 329.237,-287.005"/>
<path fill="none" stroke="white" d="M313.107,-335.715C318.024,-322.602 325.085,-303.773 331.11,-287.708"/>
<path fill="none" stroke="black" d="M314.98,-336.417C319.897,-323.304 326.958,-304.476 332.982,-288.41"/>
<polygon fill="black" stroke="black" points="334.464,-288.73 334.698,-278.137 327.91,-286.272 334.464,-288.73"/>
</g>
<!-- property_location&#45;&#45;location -->
<g id="edge6" class="edge"><title>property_location&#45;&#45;location</title>
<path fill="none" stroke="black" d="M326.997,-338.405C342.257,-327.902 363.7,-312.865 382,-299 386.086,-295.904 390.305,-292.626 394.495,-289.317"/>
<polygon fill="black" stroke="black" points="396.839,-291.924 402.474,-282.952 392.474,-286.452 396.839,-291.924"/>
</g>
<!-- percentage -->
<g id="node12" class="node"><title>percentage</title>
<polygon fill="none" stroke="black" points="294.25,-273 219.75,-273 219.75,-237 294.25,-237 294.25,-273"/>
<text text-anchor="middle" x="257" y="-251.3" font-family="Times,serif" font-size="14.00">percentage</text>
</g>
<!-- percentage&#45;&#45;own -->
<g id="edge13" class="edge"><title>percentage&#45;&#45;own</title>
<path fill="none" stroke="black" stroke-dasharray="5,2" d="M257,-236.837C257,-219.363 257,-192.434 257,-175.014"/>
</g>
</g>
</svg>
